<svg width="251" height="168" viewBox="0 0 251 168" fill="none" xmlns="http://www.w3.org/2000/svg">
<rect width="251" height="168" fill="white"/>
<g opacity="0.37" filter="url(#filter0_f_7_146)">
<path d="M124.896 153C97.4132 152.47 73.5712 143.914 51.5499 130.74C42.2732 125.138 33.6034 118.853 25.5405 111.963C22.5927 109.465 20.8588 106.512 21.8125 102.802C23.7198 95.6094 33.1699 93.4137 39.9323 98.8651C46.8682 104.468 54.1508 109.541 62.2137 113.781C109.117 138.312 169.893 132.179 209.254 99.0922C210.121 98.4108 210.901 97.6537 211.768 96.9722C216.623 93.4137 222.518 93.4894 226.593 97.1237C230.581 100.758 230.408 106.058 225.986 109.995C213.849 120.973 200.324 130.286 185.152 137.857C166.338 147.246 146.224 152.697 124.896 153Z" fill="#ED1944"/>
</g>
<path d="M124.78 164.1C92.0012 163.376 63.5652 151.692 37.3006 133.699C26.2364 126.047 15.8961 117.465 6.27951 108.055C2.76379 104.643 0.695714 100.61 1.83315 95.5434C4.10804 85.72 15.379 82.7213 23.4445 90.1664C31.7168 97.8182 40.4027 104.746 50.0193 110.537C105.961 144.04 178.447 135.664 225.392 90.4766C226.426 89.5459 227.357 88.5119 228.391 87.5813C234.181 82.7213 241.213 82.8247 246.073 87.7881C250.829 92.7515 250.622 99.9897 245.349 105.367C230.872 120.36 214.741 133.079 196.646 143.419C174.207 156.241 156.875 164.1 124.78 164.1Z" fill="#ED1944"/>
<path d="M16.8368 22.232C16.9768 22.232 17.0468 22.624 17.0468 23.408C17.0468 24.136 16.9768 24.5 16.8368 24.5H14.7788C14.9328 24.682 15.0098 24.962 15.0098 25.34C15.0098 26.166 14.7718 26.901 14.2958 27.545C13.8198 28.189 13.1478 28.686 12.2798 29.036C11.4118 29.4 10.4108 29.582 9.27684 29.582H7.68084C5.88884 29.582 4.50984 29.064 3.54384 28.028C2.57784 27.006 2.09484 25.564 2.09484 23.702V19.628H4.25784V23.66C4.25784 26.096 5.40584 27.314 7.70184 27.314H9.27684C10.4668 27.314 11.3558 27.146 11.9438 26.81C12.5318 26.474 12.8258 25.991 12.8258 25.361C12.8258 25.025 12.7348 24.78 12.5528 24.626C12.3848 24.486 12.1118 24.416 11.7338 24.416H7.95384L8.16384 22.232H16.8368ZM20.7711 22.232C21.2191 22.232 21.5761 22.12 21.8421 21.896C22.1221 21.658 22.2621 21.329 22.2621 20.909V17.528H24.4251V20.825C24.4251 21.763 24.9081 22.232 25.8741 22.232H26.6091C26.7491 22.232 26.8191 22.617 26.8191 23.387C26.8191 24.129 26.7491 24.5 26.6091 24.5H25.7901C24.5581 24.5 23.7391 24.122 23.3331 23.366C22.8431 24.122 21.9891 24.5 20.7711 24.5H16.8441C16.7041 24.5 16.6341 24.136 16.6341 23.408C16.6341 22.624 16.7041 22.232 16.8441 22.232H20.7711ZM24.5511 13.118V15.134H18.8391V13.118H24.5511ZM32.3808 20.972C32.3808 22.078 32.0518 22.946 31.3938 23.576C30.7358 24.192 29.8538 24.5 28.7478 24.5H26.6058C26.4658 24.5 26.3958 24.136 26.3958 23.408C26.3958 22.624 26.4658 22.232 26.6058 22.232H28.7478C29.1818 22.232 29.5318 22.12 29.7978 21.896C30.0638 21.658 30.1968 21.329 30.1968 20.909V17.528H32.3808V20.972ZM28.8318 15.134V13.076H31.3518V15.134H28.8318ZM38.8301 20.762C38.8301 21.742 39.3621 22.232 40.4261 22.232H40.7201C40.8601 22.232 40.9301 22.624 40.9301 23.408C40.9301 24.136 40.8601 24.5 40.7201 24.5H40.4261C40.0761 24.5 39.7541 24.451 39.4601 24.353C39.1801 24.241 38.9701 24.094 38.8301 23.912V24.038C38.8021 25.13 38.5501 26.096 38.0741 26.936C37.6121 27.776 36.9611 28.427 36.1211 28.889C35.2951 29.351 34.3291 29.582 33.2231 29.582H31.6481L31.4591 27.314H33.2021C34.2801 27.314 35.1201 27.006 35.7221 26.39C36.3381 25.788 36.6461 24.934 36.6461 23.828V17.528H38.8301V20.762ZM44.6421 22.232C45.0901 22.232 45.4471 22.12 45.7131 21.896C45.9931 21.658 46.1331 21.329 46.1331 20.909V17.528H48.2961V20.825C48.2961 21.763 48.7791 22.232 49.7451 22.232H50.4801C50.6201 22.232 50.6901 22.617 50.6901 23.387C50.6901 24.129 50.6201 24.5 50.4801 24.5H49.6611C48.4291 24.5 47.6101 24.122 47.2041 23.366C46.7141 24.122 45.8601 24.5 44.6421 24.5H40.7151C40.5751 24.5 40.5051 24.136 40.5051 23.408C40.5051 22.624 40.5751 22.232 40.7151 22.232H44.6421ZM48.4221 13.118V15.134H42.7101V13.118H48.4221ZM52.9969 22.232C53.4449 22.232 53.8019 22.12 54.0679 21.896C54.3479 21.658 54.4879 21.329 54.4879 20.909V17.528H56.6719V20.825C56.6719 21.763 57.1549 22.232 58.1209 22.232H58.8349C58.9749 22.232 59.0449 22.617 59.0449 23.387C59.0449 24.129 58.9749 24.5 58.8349 24.5H58.0369C56.7909 24.5 55.9649 24.122 55.5589 23.366C55.0689 24.122 54.2149 24.5 52.9969 24.5H50.4769C50.3369 24.5 50.2669 24.136 50.2669 23.408C50.2669 22.624 50.3369 22.232 50.4769 22.232H52.9969ZM53.2279 15.134V13.076H55.7479V15.134H53.2279ZM64.6191 20.972C64.6191 22.078 64.2901 22.946 63.6321 23.576C62.9741 24.192 62.0921 24.5 60.9861 24.5H58.8441C58.7041 24.5 58.6341 24.136 58.6341 23.408C58.6341 22.624 58.7041 22.232 58.8441 22.232H60.9861C61.4201 22.232 61.7701 22.12 62.0361 21.896C62.3021 21.658 62.4351 21.329 62.4351 20.909V17.528H64.6191V20.972ZM63.3801 26.957V28.973H57.6681V26.957H63.3801ZM67.9503 10.934H70.1133V24.5H67.9503V10.934ZM74.2044 20.93C74.2044 20.16 74.4144 19.39 74.8344 18.62C75.2544 17.836 75.9544 16.954 76.9344 15.974L76.0314 15.05L77.5644 13.412C78.9504 14.672 80.0074 15.722 80.7354 16.562C81.4634 17.388 81.9604 18.116 82.2264 18.746C82.5064 19.376 82.6464 20.034 82.6464 20.72C82.6464 21.49 82.4574 22.183 82.0794 22.799C81.7154 23.401 81.1974 23.87 80.5254 24.206C79.8674 24.542 79.1044 24.71 78.2364 24.71C77.0184 24.71 76.0384 24.367 75.2964 23.681C74.5684 22.981 74.2044 22.064 74.2044 20.93ZM80.4834 20.72C80.4834 20.174 80.3294 19.649 80.0214 19.145C79.7274 18.641 79.1954 18.046 78.4254 17.36C77.6834 18.06 77.1514 18.683 76.8294 19.229C76.5214 19.761 76.3674 20.293 76.3674 20.825C76.3674 21.287 76.5424 21.672 76.8924 21.98C77.2424 22.288 77.7184 22.442 78.3204 22.442C78.9504 22.442 79.4684 22.281 79.8744 21.959C80.2804 21.637 80.4834 21.224 80.4834 20.72ZM90.0333 22.232C90.1033 22.232 90.1523 22.309 90.1803 22.463C90.2223 22.617 90.2433 22.932 90.2433 23.408C90.2433 23.856 90.2223 24.15 90.1803 24.29C90.1523 24.43 90.1033 24.5 90.0333 24.5H89.4033C88.2833 24.5 87.4363 24.171 86.8623 23.513C86.2883 22.855 86.0013 21.924 86.0013 20.72V10.934H88.1643V20.573C88.1643 21.147 88.2693 21.567 88.4793 21.833C88.7033 22.099 89.0533 22.232 89.5293 22.232H90.0333ZM98.8395 7.28L99.2385 8.645L91.9095 11.669V10.178L98.8395 7.28ZM95.7735 22.232C96.3055 22.232 96.7185 22.141 97.0125 21.959C97.3065 21.763 97.4535 21.504 97.4535 21.182C97.4535 20.916 97.3905 20.671 97.2645 20.447C97.1385 20.223 96.9355 19.964 96.6555 19.67L91.9095 14.987V13.16L99.6795 10.115L100.331 12.194L94.5135 14.42L98.2725 18.221C99.5605 19.495 100.506 20.405 101.108 20.951C101.724 21.483 102.214 21.833 102.578 22.001C102.942 22.155 103.362 22.232 103.838 22.232C103.978 22.232 104.048 22.624 104.048 23.408C104.048 24.136 103.978 24.5 103.838 24.5C103.18 24.5 102.641 24.451 102.221 24.353C101.815 24.241 101.395 24.031 100.961 23.723C100.541 23.415 100.002 22.932 99.3435 22.274C99.1895 22.96 98.7975 23.506 98.1675 23.912C97.5375 24.304 96.7395 24.5 95.7735 24.5H90.0405C89.9005 24.5 89.8305 24.136 89.8305 23.408C89.8305 22.624 89.9005 22.232 90.0405 22.232H95.7735ZM105.501 22.232C106.075 22.232 106.509 22.106 106.803 21.854C107.097 21.588 107.244 21.217 107.244 20.741V17.528H109.428V20.741C109.428 21.735 109.995 22.232 111.129 22.232C111.703 22.232 112.137 22.106 112.431 21.854C112.725 21.588 112.872 21.217 112.872 20.741V17.528H115.056V20.741C115.056 21.217 115.189 21.588 115.455 21.854C115.721 22.106 116.12 22.232 116.652 22.232C117.198 22.232 117.604 22.106 117.87 21.854C118.15 21.588 118.29 21.217 118.29 20.741V17.528H120.453V20.72C120.453 21.91 120.117 22.841 119.445 23.513C118.773 24.171 117.842 24.5 116.652 24.5C115.224 24.5 114.3 24.094 113.88 23.282C113.334 24.094 112.417 24.5 111.129 24.5C110.345 24.5 109.722 24.402 109.26 24.206C108.798 23.996 108.462 23.688 108.252 23.282C107.706 24.094 106.789 24.5 105.501 24.5H103.842C103.702 24.5 103.632 24.136 103.632 23.408C103.632 22.624 103.702 22.232 103.842 22.232H105.501ZM114.993 10.031V11.984H112.788V10.031H114.993ZM116.736 13.118V15.134H111.024V13.118H116.736ZM131.756 23.744C131.756 24.948 131.532 25.984 131.084 26.852C130.636 27.734 129.999 28.406 129.173 28.868C128.361 29.344 127.402 29.582 126.296 29.582H123.587L123.398 27.314H126.359C127.353 27.314 128.137 27.062 128.711 26.558C129.285 26.054 129.579 25.368 129.593 24.5H127.787C126.303 24.5 125.239 24.199 124.595 23.597C123.951 22.981 123.629 22.022 123.629 20.72C123.629 19.824 123.797 19.033 124.133 18.347C124.483 17.661 124.966 17.129 125.582 16.751C126.212 16.359 126.933 16.163 127.745 16.163C128.991 16.163 129.971 16.583 130.685 17.423C131.399 18.249 131.756 19.383 131.756 20.825V23.744ZM125.813 20.615C125.813 21.203 125.967 21.623 126.275 21.875C126.583 22.113 127.122 22.232 127.892 22.232H129.593V20.867C129.593 20.041 129.425 19.418 129.089 18.998C128.753 18.564 128.27 18.347 127.64 18.347C127.066 18.347 126.618 18.557 126.296 18.977C125.974 19.383 125.813 19.929 125.813 20.615ZM133.387 27.314C134.465 27.314 135.305 27.006 135.907 26.39C136.523 25.788 136.831 24.934 136.831 23.828V17.528H139.015V20.762C139.015 21.742 139.547 22.232 140.611 22.232H140.905C141.045 22.232 141.115 22.624 141.115 23.408C141.115 24.136 141.045 24.5 140.905 24.5H140.611C140.261 24.5 139.939 24.451 139.645 24.353C139.365 24.241 139.155 24.094 139.015 23.912V24.038C138.987 25.13 138.735 26.096 138.259 26.936C137.797 27.776 137.146 28.427 136.306 28.889C135.48 29.351 134.514 29.582 133.408 29.582H132.799L132.61 27.314H133.387ZM143.945 22.232C144.379 22.232 144.666 22.218 144.806 22.19C144.008 21.84 143.434 21.441 143.084 20.993C142.748 20.531 142.58 19.943 142.58 19.229C142.58 18.459 142.755 17.759 143.105 17.129C143.469 16.499 143.959 16.009 144.575 15.659C145.205 15.295 145.912 15.113 146.696 15.113C148.012 15.113 149.034 15.519 149.762 16.331C150.504 17.143 150.875 18.263 150.875 19.691V20.405C150.875 23.135 149.048 24.5 145.394 24.5H140.9C140.76 24.5 140.69 24.136 140.69 23.408C140.69 22.624 140.76 22.232 140.9 22.232H143.945ZM148.082 21.917C148.502 21.539 148.712 20.979 148.712 20.237V19.817C148.712 18.137 148.033 17.297 146.675 17.297C146.143 17.297 145.688 17.486 145.31 17.864C144.932 18.228 144.743 18.676 144.743 19.208C144.743 19.614 144.841 19.964 145.037 20.258C145.247 20.538 145.59 20.811 146.066 21.077C146.542 21.343 147.214 21.623 148.082 21.917ZM145.415 13.034V10.976H147.935V13.034H145.415Z" fill="#969FAE"/>
<path d="M211.141 7.25359C211.141 4.62825 213.269 2.5 215.894 2.5H216.092C218.718 2.5 220.846 4.62825 220.846 7.25359V23.6931C220.846 27.1935 223.683 30.0312 227.184 30.0312H243.235C245.861 30.0312 247.989 32.1595 247.989 34.7848V35.1809C247.989 37.8063 245.861 39.9345 243.235 39.9345H225.401C217.525 39.9345 211.141 33.5498 211.141 25.6737V7.25359Z" fill="#ED1944"/>
<path d="M200.35 2.5C202.975 2.5 205.104 4.62825 205.104 7.25359V7.45166C205.104 10.077 202.975 12.2052 200.35 12.2052H183.267C178.372 12.2052 174.403 16.1736 174.403 21.0687C174.403 25.9639 178.372 29.9322 183.267 29.9322H185.148C187.749 29.9322 189.857 32.0401 189.857 34.6403C189.857 37.2406 187.749 39.3485 185.148 39.3485H182.187C172.419 39.3485 164.5 31.4296 164.5 21.6612C164.5 11.0788 173.079 2.5 183.661 2.5L200.35 2.5Z" fill="#ED1944"/>
<path d="M200.647 25.6737C203.108 25.6737 205.104 23.6785 205.104 21.2173C205.104 18.756 203.108 16.7608 200.647 16.7608H190.645C188.183 16.7608 186.188 18.756 186.188 21.2173C186.188 23.6785 188.183 25.6737 190.645 25.6737H200.647Z" fill="#ED1944"/>
<path d="M244.024 13.3028C246.485 13.3028 248.48 15.298 248.48 17.7593C248.48 20.2205 246.485 22.2158 244.024 22.2158H234.021C231.56 22.2158 229.565 20.2205 229.565 17.7593C229.565 15.298 231.56 13.3028 234.021 13.3028H244.024Z" fill="#ED1944"/>
<path d="M200.354 36.4766C202.954 36.4766 205.062 34.3686 205.062 31.7684C205.062 29.1681 202.954 27.0602 200.354 27.0602C197.754 27.0602 195.646 29.1681 195.646 31.7684C195.646 34.3686 197.754 36.4766 200.354 36.4766Z" fill="#ED1944"/>
<path d="M243.731 2.5C246.331 2.5 248.439 4.60792 248.439 7.20817C248.439 9.80842 246.331 11.9163 243.731 11.9163C241.13 11.9163 239.022 9.80842 239.022 7.20817C239.022 4.60792 241.13 2.5 243.731 2.5Z" fill="#ED1944"/>
<defs>
<filter id="filter0_f_7_146" x="7.54975" y="80.35" width="235.9" height="86.65" filterUnits="userSpaceOnUse" color-interpolation-filters="sRGB">
<feFlood flood-opacity="0" result="BackgroundImageFix"/>
<feBlend mode="normal" in="SourceGraphic" in2="BackgroundImageFix" result="shape"/>
<feGaussianBlur stdDeviation="7" result="effect1_foregroundBlur_7_146"/>
</filter>
</defs>
</svg>
