<svg width="239" height="72" viewBox="0 0 239 72" fill="none" xmlns="http://www.w3.org/2000/svg">
<rect width="239" height="72" fill="white"/>
<rect y="0.25" width="71.5" height="71.5" rx="30" fill="#ED1944"/>
<path d="M35.6233 49.85C29.8532 49.7226 24.8476 47.6657 20.2243 44.4986C18.2766 43.1516 16.4564 41.6408 14.7636 39.9844C14.1448 39.3838 13.7807 38.6739 13.9809 37.782C14.3814 36.0528 16.3654 35.5249 17.7852 36.8355C19.2414 38.1824 20.7703 39.402 22.4631 40.4213C32.3105 46.3188 45.0702 44.8444 53.334 36.8901C53.516 36.7263 53.6798 36.5442 53.8618 36.3804C54.8812 35.5249 56.1189 35.5431 56.9744 36.4168C57.8117 37.2905 57.7753 38.5647 56.847 39.5112C54.2987 42.1505 51.4592 44.3894 48.2738 46.2096C44.3239 48.4666 41.2729 49.85 35.6233 49.85Z" fill="white"/>
<path d="M151.337 18.4683C151.337 15.1721 154.01 12.5 157.306 12.5H157.554C160.851 12.5 163.523 15.1721 163.523 18.4683V39.1085C163.523 43.5034 167.085 47.0661 171.48 47.0661H191.633C194.93 47.0661 197.602 49.7382 197.602 53.0344V53.5317C197.602 56.8279 194.93 59.5 191.633 59.5H169.242C159.354 59.5 151.337 51.4838 151.337 41.5952V18.4683Z" fill="#ED1944"/>
<path d="M137.79 12.5C141.086 12.5 143.758 15.1721 143.758 18.4683V18.717C143.758 22.0131 141.086 24.6852 137.79 24.6852H116.341C110.195 24.6852 105.213 29.6675 105.213 35.8135C105.213 41.9595 110.195 46.9418 116.341 46.9418H118.704C121.968 46.9418 124.615 49.5883 124.615 52.853C124.615 56.1177 121.968 58.7642 118.704 58.7642H114.986C102.721 58.7642 92.7791 48.8219 92.7791 36.5574C92.7791 23.2709 103.55 12.5 116.837 12.5L137.79 12.5Z" fill="#ED1944"/>
<path d="M138.163 41.5952C141.253 41.5952 143.758 39.0902 143.758 36C143.758 32.9098 141.253 30.4048 138.163 30.4048H125.604C122.514 30.4048 120.009 32.9098 120.009 36C120.009 39.0902 122.514 41.5952 125.604 41.5952H138.163Z" fill="#ED1944"/>
<path d="M192.623 26.0632C195.713 26.0632 198.218 28.5683 198.218 31.6584C198.218 34.7486 195.713 37.2537 192.623 37.2537H180.065C176.975 37.2537 174.47 34.7486 174.47 31.6584C174.47 28.5683 176.975 26.0632 180.065 26.0632H192.623Z" fill="#ED1944"/>
<path d="M137.795 55.1584C141.059 55.1584 143.706 52.5119 143.706 49.2472C143.706 45.9825 141.059 43.336 137.795 43.336C134.53 43.336 131.884 45.9825 131.884 49.2472C131.884 52.5119 134.53 55.1584 137.795 55.1584Z" fill="#ED1944"/>
<path d="M192.255 12.5C195.52 12.5 198.166 15.1466 198.166 18.4113C198.166 21.6759 195.52 24.3225 192.255 24.3225C188.99 24.3225 186.344 21.6759 186.344 18.4113C186.344 15.1466 188.99 12.5 192.255 12.5Z" fill="#ED1944"/>
</svg>
