<svg width="27" height="27" viewBox="0 0 27 27" fill="none" xmlns="http://www.w3.org/2000/svg">
<g clip-path="url(#clip0_213_89)">
<rect width="27" height="27" fill="white"/>
<rect x="0.4375" y="0.6875" width="26.125" height="26.125" rx="11" fill="#ED1944"/>
<path d="M13.4537 18.8106C11.3454 18.764 9.51643 18.0125 7.82713 16.8553C7.11549 16.3631 6.45042 15.8111 5.83189 15.2059C5.60577 14.9864 5.47275 14.727 5.54591 14.4011C5.69223 13.7693 6.41716 13.5764 6.93592 14.0553C7.46799 14.5474 8.02665 14.993 8.64517 15.3655C12.2432 17.5203 16.9054 16.9816 19.9249 14.0752C19.9914 14.0154 20.0513 13.9489 20.1178 13.889C20.4902 13.5764 20.9425 13.5831 21.2551 13.9023C21.561 14.2215 21.5477 14.6871 21.2085 15.0329C20.2774 15.9973 19.2399 16.8153 18.076 17.4804C16.6328 18.3051 15.518 18.8106 13.4537 18.8106Z" fill="white"/>
</g>
<defs>
<clipPath id="clip0_213_89">
<rect width="27" height="27" fill="white"/>
</clipPath>
</defs>
</svg>
